<?xml version="1.0" standalone="no"?>
<!DOCTYPE svg PUBLIC "-//W3C//DTD SVG 20010904//EN"
 "http://www.w3.org/TR/2001/REC-SVG-20010904/DTD/svg10.dtd">
<svg version="1.0" xmlns="http://www.w3.org/2000/svg"
 width="1360.000000pt" height="1360.000000pt" viewBox="0 0 1360.000000 1360.000000"
 preserveAspectRatio="xMidYMid meet">
<metadata>
Created by potrace 1.14, written by Peter Selinger 2001-2017
</metadata>
<g transform="translate(0.000000,1360.000000) scale(0.100000,-0.100000)"
fill="#000000" stroke="none">
<path d="M2009 13593 c-1 -5 -1 -11 0 -15 0 -5 -3 -8 -8 -8 -49 0 183 -632
365 -990 156 -309 413 -697 675 -1020 118 -145 190 -225 201 -222 5 1 7 -1 4
-6 -7 -12 68 -84 79 -75 4 5 5 3 2 -3 -15 -25 410 -369 579 -470 74 -44 73
-51 -8 -53 -74 -1 -106 -3 -213 -17 -33 -4 -70 -7 -82 -7 -13 -1 -23 -4 -23
-8 0 -3 -17 -9 -37 -12 -89 -14 -137 -29 -148 -47 -3 -5 -11 -7 -17 -4 -7 4
-8 2 -4 -5 4 -6 0 -14 -8 -17 -9 -3 -13 -10 -10 -15 3 -5 1 -9 -4 -9 -19 0
-37 -115 -34 -215 10 -271 7 -333 -23 -445 -8 -29 -12 -57 -10 -60 3 -4 -5
-16 -16 -26 -31 -28 -48 -66 -58 -131 -5 -32 -14 -76 -20 -98 -11 -42 -15
-218 -6 -295 13 -116 17 -139 30 -200 32 -141 59 -203 93 -208 26 -4 38 -23
46 -77 27 -173 67 -388 88 -470 19 -76 20 -165 2 -240 -2 -11 -6 -45 -9 -75
-2 -30 -5 -55 -5 -55 -2 0 -1 4 -40 -250 -16 -104 -32 -215 -35 -245 -3 -30
-8 -66 -10 -80 -2 -14 -7 -56 -10 -95 -4 -38 -8 -81 -10 -95 -4 -26 -11 -101
-20 -210 -3 -36 -8 -87 -10 -115 -28 -318 -40 -641 -40 -1065 0 -331 9 -708
20 -803 2 -16 6 -81 10 -145 3 -64 8 -133 10 -152 2 -19 7 -84 11 -145 3 -60
8 -118 9 -127 10 -50 20 -322 20 -528 0 -259 -5 -340 -34 -540 -11 -74 -22
-153 -25 -175 -3 -22 -8 -51 -11 -65 -8 -41 -24 -132 -30 -175 -3 -22 -15 -94
-26 -160 -21 -126 -26 -158 -33 -215 -3 -19 -7 -51 -10 -70 -3 -19 -8 -64 -12
-100 -3 -36 -10 -94 -14 -130 -9 -66 -5 -512 5 -585 6 -49 14 -123 21 -190 16
-162 36 -272 52 -295 21 -28 118 -79 267 -139 110 -44 298 -107 351 -117 19
-3 37 -10 40 -15 3 -5 -4 -38 -16 -73 -11 -34 -22 -71 -24 -82 -2 -10 -14 -53
-25 -94 -12 -41 -21 -82 -21 -91 0 -9 -22 -55 -50 -103 -83 -145 -118 -234
-106 -279 5 -21 15 -26 88 -40 46 -9 112 -19 148 -23 36 -4 73 -11 83 -16 27
-14 88 -17 116 -6 14 6 77 12 139 13 126 4 187 12 215 29 10 6 32 37 49 69
l31 57 48 0 c52 0 51 2 53 -63 1 -15 8 -32 16 -37 8 -5 43 -37 76 -71 72 -72
81 -74 289 -85 111 -6 136 -10 171 -30 22 -13 62 -27 88 -30 40 -6 52 -3 79
16 18 13 38 32 45 42 8 10 26 18 42 18 43 0 125 19 145 34 23 16 26 72 9 146
-7 30 -11 57 -9 59 3 2 20 -8 40 -23 19 -15 63 -41 98 -59 58 -30 70 -32 174
-34 95 -1 124 -6 201 -32 91 -31 152 -40 152 -20 0 5 4 8 9 5 11 -7 41 37 41
62 0 10 8 18 19 19 10 1 37 7 60 13 37 10 41 14 41 43 0 64 -60 247 -81 247
-5 0 -9 5 -9 11 0 10 -100 141 -121 159 -3 3 -8 13 -12 22 -5 14 -1 17 21 13
283 -48 489 -76 578 -79 142 -5 363 -40 511 -82 29 -8 71 -17 95 -19 24 -2 77
-15 118 -28 85 -29 122 -28 244 5 78 21 79 21 205 3 152 -22 201 -22 217 0 13
18 9 62 -8 82 -6 7 -7 13 -2 13 5 0 3 4 -5 9 -18 11 -24 41 -8 36 7 -2 64 -16
127 -30 135 -32 180 -30 269 13 l61 29 142 -14 c78 -8 143 -15 144 -16 1 -1 5
-29 8 -62 3 -33 8 -71 11 -85 2 -14 7 -56 10 -95 3 -38 9 -90 12 -115 4 -25 6
-51 5 -57 -6 -29 19 -53 53 -53 60 0 70 20 85 165 9 88 6 796 -4 865 -3 19 -8
80 -11 135 -4 55 -8 120 -10 145 -10 126 -16 188 -20 215 -3 17 -7 48 -10 70
-16 117 -91 556 -130 756 -12 64 -109 479 -155 664 -19 78 -42 225 -60 390
-33 304 -78 574 -125 762 -34 132 -130 422 -226 678 l-79 209 25 26 c31 32
116 181 109 191 -7 12 24 25 106 43 118 26 248 73 330 118 92 51 226 181 295
288 52 79 148 267 148 288 0 6 4 12 8 12 4 0 10 7 13 16 4 10 2 13 -7 8 -9 -6
-9 -5 0 7 11 14 49 117 58 158 3 11 7 30 10 41 3 11 7 29 10 40 12 49 18 77
30 150 9 51 15 84 20 110 6 25 9 44 22 115 9 51 9 261 1 340 -8 71 -15 105
-28 140 -5 14 -9 29 -9 33 1 4 0 9 -1 12 -1 3 -3 13 -6 23 -2 9 -6 25 -8 35
-3 9 -5 19 -7 22 -1 3 -3 10 -4 15 -2 6 -6 19 -9 30 -4 11 -6 24 -6 29 1 5 -4
12 -10 16 -7 4 -13 19 -13 34 -1 14 -5 26 -10 26 -4 0 -6 3 -5 8 1 4 -9 30
-21 57 -13 28 -24 55 -25 60 -1 6 -10 25 -19 42 -10 18 -17 35 -17 38 0 3 -11
28 -25 55 -14 28 -22 50 -18 50 5 0 3 4 -3 8 -16 10 -54 88 -47 96 4 3 1 6 -5
6 -10 0 -23 25 -21 44 0 5 -3 12 -9 15 -9 6 -90 157 -94 176 -1 6 -10 19 -20
29 -17 19 -22 31 -19 49 0 4 -3 7 -7 7 -10 0 -37 50 -34 63 1 4 -3 7 -9 7 -5
0 -8 4 -4 9 3 6 -2 14 -10 18 -9 5 -17 22 -18 38 -2 24 3 29 31 37 29 8 46 28
23 28 -5 0 -12 12 -16 28 -13 44 -14 52 -5 47 9 -6 30 48 30 76 0 10 -9 24
-21 32 -20 15 -20 15 5 52 15 21 26 42 26 47 0 5 75 45 167 89 92 44 170 83
173 87 3 4 10 8 17 9 23 5 233 134 233 143 0 6 6 10 13 10 11 0 85 69 132 123
74 85 162 260 181 359 10 52 5 166 -10 248 -12 66 -15 268 -5 309 2 8 31 35
63 59 78 58 137 118 218 223 89 115 113 162 110 219 -2 53 -5 71 -13 85 -4 6
-9 22 -13 38 -11 47 -102 143 -162 172 l-36 17 21 22 c12 12 18 26 14 29 -3 4
1 7 10 7 8 0 19 9 22 21 4 11 9 18 12 16 9 -9 53 36 46 47 -3 6 -3 8 1 4 5 -4
40 19 80 51 95 75 212 143 333 192 320 132 616 147 885 46 88 -34 138 -40 161
-20 9 9 17 22 17 29 0 22 -85 171 -110 194 -3 3 -11 17 -19 33 -8 15 -18 27
-23 27 -4 0 -8 5 -8 11 0 19 -112 129 -185 183 -70 52 -175 112 -175 101 0 -3
-10 1 -22 9 -19 12 -118 44 -153 50 -5 1 -15 4 -20 8 -6 3 -30 7 -55 9 -25 1
-53 6 -63 11 -10 5 -80 10 -155 10 -145 1 -205 -5 -289 -31 -18 -5 -33 -8 -33
-5 0 2 -14 -3 -30 -11 -17 -9 -34 -14 -38 -12 -4 3 -18 0 -32 -6 -14 -5 -32
-11 -40 -13 -9 -2 -34 -11 -55 -21 -22 -9 -45 -18 -51 -18 -6 0 -22 -5 -35
-12 -13 -6 -60 -26 -104 -44 -44 -18 -82 -36 -85 -39 -3 -3 -13 -6 -23 -8 -10
-2 -33 -11 -50 -21 -64 -36 -82 -45 -87 -46 -3 -1 -29 -13 -59 -28 -30 -15
-57 -25 -59 -22 -3 3 -10 1 -16 -4 -9 -8 -70 -27 -101 -32 -5 -1 -38 -12 -73
-26 -35 -13 -61 -19 -57 -13 3 5 1 10 -4 10 -6 0 -11 7 -11 15 0 8 -5 15 -11
15 -5 0 -7 5 -3 12 5 7 3 8 -5 4 -8 -5 -14 0 -18 13 -3 12 -11 21 -17 21 -6 0
-26 14 -44 30 -18 17 -38 30 -44 30 -6 0 -20 7 -30 17 -21 18 -22 12 -8 -37 6
-22 6 -38 0 -44 -10 -10 -28 8 -52 54 -17 33 -51 83 -61 91 -5 3 -7 8 -5 11 4
5 -79 121 -110 154 -13 13 -20 24 -18 24 3 0 -2 9 -12 21 -21 26 -129 109
-141 109 -19 0 -22 49 -7 118 6 27 -9 29 -31 2 -10 -11 -25 -20 -34 -20 -19 0
-42 24 -32 33 3 4 -1 7 -11 7 -9 0 -14 5 -11 10 3 6 -1 10 -9 10 -9 0 -16 5
-16 10 0 6 -6 10 -14 10 -8 0 -17 7 -20 16 -3 8 -10 12 -16 9 -5 -3 -10 -1
-10 4 0 6 -7 11 -15 11 -8 0 -23 9 -32 20 -10 11 -22 20 -28 20 -5 0 -26 14
-45 30 -19 16 -41 30 -47 30 -7 0 -13 5 -13 10 0 6 -7 10 -15 10 -8 0 -15 5
-15 10 0 6 -7 10 -15 10 -8 0 -15 5 -15 10 0 6 -7 10 -15 10 -8 0 -15 5 -15
10 0 6 -7 10 -16 10 -9 0 -29 9 -45 21 -38 27 -180 99 -196 99 -6 0 -13 3 -15
8 -4 10 -128 72 -144 72 -8 0 -14 5 -14 10 0 6 -9 10 -19 10 -11 0 -23 5 -26
10 -3 6 -21 10 -39 10 -17 0 -36 4 -41 9 -6 5 -26 11 -46 14 -20 2 -42 8 -48
12 -14 8 -296 9 -310 0 -6 -3 -29 -8 -52 -10 -22 -2 -69 -12 -103 -21 -33 -9
-68 -17 -76 -18 -9 -1 -21 -5 -27 -9 -11 -7 -111 -43 -138 -50 -5 -2 -25 -11
-42 -20 -18 -10 -33 -15 -33 -12 0 3 -18 -6 -40 -20 -22 -14 -44 -25 -50 -25
-5 0 -10 -4 -10 -10 0 -5 -6 -10 -14 -10 -8 0 -16 -3 -18 -7 -1 -5 -22 -20
-45 -36 -24 -15 -43 -32 -43 -38 0 -5 -5 -7 -10 -4 -6 3 -13 -1 -16 -9 -3 -9
-10 -13 -15 -10 -5 3 -9 1 -9 -3 0 -5 -18 -19 -40 -33 -22 -14 -40 -28 -40
-32 0 -5 -7 -8 -15 -8 -8 0 -15 -8 -15 -17 0 -9 -3 -13 -7 -10 -5 6 -57 -31
-109 -78 -7 -5 -29 -23 -49 -40 -21 -16 -61 -51 -89 -78 -61 -57 -114 -82
-198 -95 -67 -11 -197 -9 -238 3 -14 4 -33 7 -44 6 -28 0 -186 81 -179 92 3 6
2 7 -4 4 -14 -9 -179 108 -191 136 -2 4 -10 7 -18 7 -7 0 -19 9 -26 20 -7 11
-18 20 -24 20 -6 0 -25 12 -42 28 -57 49 -77 63 -80 53 -3 -10 77 -236 114
-319 13 -30 24 -56 24 -58 0 -10 -30 -2 -44 12 -9 8 -16 13 -16 9 0 -3 -10 3
-22 15 -12 11 -28 20 -35 20 -7 0 -13 4 -13 8 0 5 -17 17 -37 28 -43 22 -58
32 -80 56 -9 9 -20 15 -25 12 -4 -3 -8 0 -8 6 0 6 -4 9 -9 5 -6 -3 -14 3 -20
12 -6 10 -11 14 -11 10 0 -5 -7 -2 -15 5 -36 33 -47 40 -52 34 -21 -20 184
-376 284 -494 25 -29 43 -55 40 -58 -4 -5 -96 20 -172 47 -16 6 -34 12 -40 13
-5 2 -17 6 -25 9 -8 4 -26 8 -40 11 -25 4 -184 60 -270 96 -25 10 -54 20 -65
22 -11 1 -22 6 -25 9 -3 3 -34 17 -70 31 -36 14 -74 29 -85 33 -11 4 -26 9
-34 11 -8 1 -28 9 -45 18 -42 20 -94 38 -102 36 -4 -1 -10 2 -13 7 -5 7 -62
31 -86 37 -5 1 -25 9 -44 19 -19 9 -40 17 -48 17 -7 0 -13 4 -13 8 0 5 -6 9
-14 9 -7 0 -36 10 -62 23 -27 13 -51 24 -54 25 -3 1 -29 13 -59 28 -30 15 -59
27 -64 27 -4 0 -15 7 -24 15 -8 8 -19 13 -24 10 -5 -4 -9 -2 -9 3 0 5 -15 15
-32 23 -18 7 -50 23 -70 36 -21 13 -38 20 -38 16 0 -5 -4 -3 -8 2 -4 6 -20 17
-37 25 -16 8 -32 17 -35 21 -3 3 -21 13 -40 22 -19 10 -48 26 -65 36 -27 17
-59 35 -126 73 -13 7 -27 18 -31 23 -5 7 -8 7 -8 0 0 -6 -3 -6 -8 1 -9 13
-131 94 -146 97 -5 1 -21 12 -35 24 -14 12 -28 20 -33 17 -4 -3 -8 2 -8 11 0
9 -4 14 -9 11 -4 -3 -21 5 -37 19 -15 13 -31 22 -36 19 -4 -3 -8 0 -8 5 0 6
-4 11 -10 11 -9 0 -35 19 -65 48 -8 6 -18 12 -24 12 -6 0 -11 5 -11 10 0 6 -7
10 -15 10 -8 0 -15 3 -15 8 0 4 -13 13 -29 20 -16 7 -43 26 -60 42 -17 17 -34
30 -38 30 -5 0 -21 11 -38 25 -16 13 -34 28 -40 33 -5 4 -14 9 -20 11 -5 2 -9
7 -7 13 1 5 -1 7 -6 5 -6 -5 -36 17 -128 92 -7 6 -14 7 -17 5 -3 -3 -8 4 -12
15 -6 19 -17 26 -38 22 -5 -1 -6 3 -2 9 3 5 2 10 -4 10 -5 0 -16 6 -23 13 -12
10 -105 87 -133 110 -5 4 -23 19 -40 32 -16 14 -35 25 -42 25 -6 0 -13 4 -15
8 -4 12 -58 25 -59 15z"/>
</g>
</svg>
